<svg xmlns="http://www.w3.org/2000/svg" xmlns:xlink="http://www.w3.org/1999/xlink" width="475.187" height="634.714" viewBox="0 0 475.187 634.714">
  <defs>
    <linearGradient id="linear-gradient" x1="0.5" x2="0.5" y2="1" gradientUnits="objectBoundingBox">
      <stop offset="0" stop-color="#ff0b32"/>
      <stop offset="1" stop-color="#ff0371"/>
    </linearGradient>
    <filter id="Rectangle_51" x="238.472" y="226.298" width="133.891" height="133.891" filterUnits="userSpaceOnUse">
      <feOffset dy="3" input="SourceAlpha"/>
      <feGaussianBlur stdDeviation="3" result="blur"/>
      <feFlood flood-color="#fff" flood-opacity="0.2"/>
      <feComposite operator="in" in2="blur"/>
      <feComposite in="SourceGraphic"/>
    </filter>
    <filter id="Rectangle_52" x="95.778" y="226.298" width="133.891" height="133.891" filterUnits="userSpaceOnUse">
      <feOffset dy="3" input="SourceAlpha"/>
      <feGaussianBlur stdDeviation="3" result="blur-2"/>
      <feFlood flood-color="#fff" flood-opacity="0.2"/>
      <feComposite operator="in" in2="blur-2"/>
      <feComposite in="SourceGraphic"/>
    </filter>
    <filter id="Path_626" x="166.915" y="91.544" width="133.891" height="133.891" filterUnits="userSpaceOnUse">
      <feOffset dy="3" input="SourceAlpha"/>
      <feGaussianBlur stdDeviation="3" result="blur-3"/>
      <feFlood flood-color="#fff" flood-opacity="0.2"/>
      <feComposite operator="in" in2="blur-3"/>
      <feComposite in="SourceGraphic"/>
    </filter>
    <filter id="Path_631" x="27.415" y="221.823" width="412.891" height="412.891" filterUnits="userSpaceOnUse">
      <feOffset dy="3" input="SourceAlpha"/>
      <feGaussianBlur stdDeviation="49.5" result="blur-4"/>
      <feFlood flood-color="#fff" flood-opacity="0.2"/>
      <feComposite operator="in" in2="blur-4"/>
      <feComposite in="SourceGraphic"/>
    </filter>
  </defs>
  <g id="Static_assets-bro" data-name="Static assets-bro" transform="translate(-64.123 -48.723)">
    <g id="freepik--background-simple--inject-2" transform="translate(64.123 96.142)">
      <path id="Path_566" data-name="Path 566" d="M242.739,98.19c-24.386,10.442-48.181,26.852-68.178,42.152-34.792,26.618-66.575,59.178-88.669,95.634-26.741,44.211-27.271,95.548-10.147,134.507,8.716,19.849,22.352,37.282,40.8,49.143,24.09,15.522,52.9,11.515,83.133,12.859,55.159,2.466,77.906,57.674,120.44,79.558,55.9,28.763,133.891-2.305,182.552-54.814,25.323-27.333,40.586-61.336,35.753-93.169C533.3,330.3,506.254,306.978,480.8,287.992a252.5,252.5,0,0,1-56.712-58.2c-15.041-21.612-23.536-46.689-36.407-69.522-20.959-37.295-51.312-76.439-104.462-72.74C269.862,88.438,256.214,92.4,242.739,98.19Z" transform="translate(-64.123 -87.283)" fill="#92e3a9"/>
      <path id="Path_567" data-name="Path 567" d="M242.739,98.19c-24.386,10.442-48.181,26.852-68.178,42.152-34.792,26.618-66.575,59.178-88.669,95.634-26.741,44.211-27.271,95.548-10.147,134.507,8.716,19.849,22.352,37.282,40.8,49.143,24.09,15.522,52.9,11.515,83.133,12.859,55.159,2.466,77.906,57.674,120.44,79.558,55.9,28.763,133.891-2.305,182.552-54.814,25.323-27.333,40.586-61.336,35.753-93.169C533.3,330.3,506.254,306.978,480.8,287.992a252.5,252.5,0,0,1-56.712-58.2c-15.041-21.612-23.536-46.689-36.407-69.522-20.959-37.295-51.312-76.439-104.462-72.74C269.862,88.438,256.214,92.4,242.739,98.19Z" transform="translate(-64.123 -87.283)" opacity="0.85" fill="url(#linear-gradient)"/>
    </g>
    <g id="freepik--character-3--inject-2" transform="translate(415.665 191.497)">
      <path id="Path_568" data-name="Path 568" d="M456.593,329.261c0,1.948-20.059,3.538-44.8,3.538S367,331.209,367,329.261s20.059-3.551,44.791-3.551S456.593,327.3,456.593,329.261Z" transform="translate(-345.131 -127.113)" fill="#1f1f1f"/>
      <path id="Path_569" data-name="Path 569" d="M366.088,179.1s-4.808-2.466-4.808-6.941,10.516-8.556,19.418-7.311,13.192,12.119,12.477,18.358-.173,10.516,5.708,14.61,16.57,16.755,12.329,23.166-9.444,8.556-5.523,13.562,4.636,10.689-.53,14.61a15.805,15.805,0,0,1-17.1,1.948c-5.881-2.848-11.934-13.192-10.332-20.848s-3.563-30.119-4.993-38.133S369.651,179.462,366.088,179.1Z" transform="translate(-346.463 -164.626)" fill="#1f1f1f" stroke="#1f1f1f" stroke-linecap="round" stroke-linejoin="round" stroke-width="1"/>
      <path id="Path_570" data-name="Path 570" d="M374.829,225.9s-8.2,7.311-11.219,9.444a8.9,8.9,0,0,1-6.066,1.96c-1.073,0-3.7-1.233-5.166.185s-3.563,5.523-3.033,5.881,4.993-2.86,5.523-2.86,1.96-.173,1.96-.173-3.921,2.848-3.033,3.378,3.218-1.06,4.105-1.6a44.807,44.807,0,0,0,3.921-3.563s9.974-5.338,12.329-5.881,4.463-4.451,4.278-5.7a2.318,2.318,0,0,0-3.6-1.073Z" transform="translate(-349.262 -150.468)" fill="#fff" stroke="#1f1f1f" stroke-linecap="round" stroke-linejoin="round" stroke-width="1"/>
      <path id="Path_571" data-name="Path 571" d="M369.091,190.629a11.182,11.182,0,0,1,2.379,6.164c0,3.39-5.166,9.629-6.953,14.967s-.345,8.914,1.073,10.874,3.921,5.166,4.105,6.953.888,4.932.888,4.932,6.053,1.788,18-3.021c0,0,1.233-27.444.888-31.007s-5.166-5.881-7.484-6.238-4.993-1.788-5.881-3.563a16.707,16.707,0,0,1-1.233-3.39Z" transform="translate(-345.903 -159.346)" fill="#ff6a96" stroke="#1f1f1f" stroke-linecap="round" stroke-linejoin="round" stroke-width="1"/>
      <path id="Path_572" data-name="Path 572" d="M379.54,193.981a7.73,7.73,0,0,1-4.512-3.23,16.7,16.7,0,0,1-1.233-3.39l-5.708,3.205a11.183,11.183,0,0,1,2.367,6.214c0,1.541-1.073,3.7-2.4,6.053,1.036,2.244,2.971,4.648,6.09,2.379S378.788,197.716,379.54,193.981Z" transform="translate(-344.886 -159.332)" fill="#fff" stroke="#1f1f1f" stroke-linecap="round" stroke-linejoin="round" stroke-width="1"/>
      <path id="Path_573" data-name="Path 573" d="M369.148,170.724s-3.7,3.008-4.389,5.61-2.959,8.63-2.466,10.837.863,8.877,3.464,9.518,10.812-4.537,12.107-6.916,2.379-8.445-.432-14.289S370.233,168.567,369.148,170.724Z" transform="translate(-346.243 -163.445)" fill="#fff" stroke="#1f1f1f" stroke-linecap="round" stroke-linejoin="round" stroke-width="1"/>
      <path id="Path_574" data-name="Path 574" d="M367.14,168.883s5.19,4.932,5.844,11.466-1.948,13.562,3.7,18.395,14.93-.653,14.93-.653a19.184,19.184,0,0,1-7.138-11.688c-1.085-7.4-2.811-14.067-6.275-16.225S368.435,168.008,367.14,168.883Z" transform="translate(-345.098 -163.761)" fill="#1f1f1f" stroke="#1f1f1f" stroke-linecap="round" stroke-linejoin="round" stroke-width="1"/>
      <path id="Path_575" data-name="Path 575" d="M425,267.146s5.881-3.378,6.584-3.021,7.484,9.259,7.669,10.147-1.073,1.43-1.788,1.073-6.411-4.451-7.841-4.636-3.7-.7-3.7-.7Z" transform="translate(-331.624 -141.461)" fill="#ff6a96" stroke="#1f1f1f" stroke-linecap="round" stroke-linejoin="round" stroke-width="1"/>
      <path id="Path_576" data-name="Path 576" d="M378.006,318.98a24.126,24.126,0,0,1-1.233,6.238c-.888,1.788-4.093,4.808-4.093,5.523s.53.888,1.418.888a11.33,11.33,0,0,0,6.066-2.848,19.827,19.827,0,0,0,2.466-4.278c.542-.715,2.675-1.6,2.86-3.206s-2.145-4.278-2.145-4.278Z" transform="translate(-343.808 -129.136)" fill="#ff6a96" stroke="#1f1f1f" stroke-linecap="round" stroke-linejoin="round" stroke-width="1"/>
      <path id="Path_577" data-name="Path 577" d="M369.939,226.235s-4.278,26.741-3.7,41.178,8.2,49.895,9.986,57.378,3.378,16.027,3.378,16.027l5.351-1.96s1.6-17.643.185-28.689-3.39-27.629-2.86-32.967.542-13.562.542-13.562,7.3,24.769,10.332,29.947,4.636,5.7,6.953,5.523,23.523-10.344,26.556-12.119,13.007-7.484,13.007-7.484l-.888-2.86s-14.795,4.105-20.675,6.066-14.264,4.451-14.264,4.451-1.6-20.133-3.563-31.537-9.616-29.947-12.329-32.437C387.939,223.215,382.058,226.654,369.939,226.235Z" transform="translate(-345.32 -150.988)" fill="#1f1f1f" stroke="#1f1f1f" stroke-linecap="round" stroke-linejoin="round" stroke-width="1"/>
      <line id="Line_1" data-name="Line 1" x1="4.315" y1="16.126" transform="translate(33.396 97.439)" fill="none" stroke="#fff" stroke-linecap="round" stroke-linejoin="round" stroke-width="1"/>
      <path id="Path_578" data-name="Path 578" d="M383.738,197.312a10.245,10.245,0,0,0-1.06,7.4c1.06,3.945,7.89,23.93,7.89,23.93s-7.619,4.993-11.823,7.878a99,99,0,0,1-10.775,6.041,5.289,5.289,0,0,0-4.216,0c-1.837,1.06-5.511,5.523-4.722,6.053s4.463-2.367,4.463-2.367a47.707,47.707,0,0,0,4.993.53c1.578,0,4.475-2.638,4.475-2.638s24.966-11.823,25.755-11.823-8.408-33.769-8.408-33.769-1.578-2.626-3.945-2.885" transform="translate(-347.012 -157.399)" fill="#ff6a96" stroke="#1f1f1f" stroke-linecap="round" stroke-linejoin="round" stroke-width="1"/>
      <path id="Path_579" data-name="Path 579" d="M396.957,218.51l-7.4,1.64c.629,1.874,1.048,3.095,1.048,3.095s-7.619,4.993-11.823,7.878a98.983,98.983,0,0,1-10.775,6.041,5.289,5.289,0,0,0-4.216,0c-1.837,1.06-5.511,5.523-4.722,6.053s4.463-2.367,4.463-2.367a47.691,47.691,0,0,0,4.993.53c1.578,0,4.475-2.638,4.475-2.638s24.966-11.823,25.755-11.823C398.967,226.918,398.153,223.331,396.957,218.51Z" transform="translate(-347.003 -152.077)" fill="#fff" stroke="#1f1f1f" stroke-linecap="round" stroke-linejoin="round" stroke-width="1"/>
    </g>
    <g id="freepik--character-2--inject-2" transform="translate(166.103 49.239)">
      <path id="Path_580" data-name="Path 580" d="M236.421,220.575c0,1.96-20.047,3.551-44.791,3.551s-44.79-1.59-44.79-3.551S166.887,217,191.63,217,236.421,218.627,236.421,220.575Z" transform="translate(-146.84 -10.171)" fill="#1f1f1f"/>
      <path id="Path_581" data-name="Path 581" d="M191.845,81.68,176.15,113.9l4.7,2.675L194.52,98.694Z" transform="translate(-140.014 -41.684)" fill="#ff6a96" stroke="#1f1f1f" stroke-linecap="round" stroke-linejoin="round" stroke-width="1"/>
      <path id="Path_582" data-name="Path 582" d="M223.908,79.78l8.1,38.022,14.006,14.363s8.975,2.158,10.048,2.873,3.23,4.315,3.23,4.315l-1.43.715L251.4,137.2h-2.158l3.945,3.23-.752.727-10.023-7.188L225.535,121.39l-5.745-11.848Z" transform="translate(-129.851 -42.127)" fill="#ff6a96" stroke="#1f1f1f" stroke-linecap="round" stroke-linejoin="round" stroke-width="1"/>
      <path id="Path_583" data-name="Path 583" d="M255.16,128.342c-1.073-.715-10.048-2.873-10.048-2.873l-14.006-14.363-.555-2.577-6.892,4.142.974,2.022,16.878,12.575,10.023,7.188.752-.727-3.945-3.23H250.5l6.46,2.873,1.43-.715S256.245,129.07,255.16,128.342Z" transform="translate(-128.95 -35.431)" fill="#fff" stroke="#1f1f1f" stroke-linecap="round" stroke-linejoin="round" stroke-width="1"/>
      <path id="Path_584" data-name="Path 584" d="M203.366,77.2,188.83,82.906s4.081,25.151,4.253,29.712-.986,16.816,0,18.123,3.427,1.467,3.427,1.467l29.823-.148s2.552-1.233,1.529-5.881c-.567-2.552.641-22.7.974-26.951s2.281-18.6,2.281-18.6S219.036,77.2,215.768,76.7,205.819,75.558,203.366,77.2Z" transform="translate(-137.061 -42.972)" fill="#ff6a96" stroke="#1f1f1f" stroke-linecap="round" stroke-linejoin="round" stroke-width="1"/>
      <path id="Path_585" data-name="Path 585" d="M204.389,73.65a15.436,15.436,0,0,0-3.625,1.5c-.592.6-1.048,3.773-1.652,5.437s-2.564,4.525-1.96,4.673,5.733-2.466,5.733-2.466l5.881,6.67L214.35,82.5s4.364,3.316,4.673,2.86-1.96-5.881-2.108-8.137-3.477-3.021-5.437-3.168S204.389,73.65,204.389,73.65Z" transform="translate(-135.15 -43.554)" fill="#ff6a96" stroke="#1f1f1f" stroke-linecap="round" stroke-linejoin="round" stroke-width="1"/>
      <path id="Path_586" data-name="Path 586" d="M201.94,70.788V79.6l5.5,10.134,5.252-10.258V70.27Z" transform="translate(-134.008 -44.341)" fill="#fff" stroke="#1f1f1f" stroke-linecap="round" stroke-linejoin="round" stroke-width="1"/>
      <path id="Path_587" data-name="Path 587" d="M200.8,63.065s-2.219-3.958-3.464-1.726.493,6.916,1.233,8.149,1.973-.74,1.973-.74" transform="translate(-135.183 -46.58)" fill="#fff" stroke="#1f1f1f" stroke-linecap="round" stroke-linejoin="round" stroke-width="1"/>
      <path id="Path_588" data-name="Path 588" d="M213,63.065s2.232-3.958,3.464-1.726-.493,6.916-1.233,8.149-1.985-.74-1.985-.74" transform="translate(-131.433 -46.58)" fill="#fff" stroke="#1f1f1f" stroke-linecap="round" stroke-linejoin="round" stroke-width="1"/>
      <path id="Path_589" data-name="Path 589" d="M217.344,64.38c0,6.953-4.093,16.558-9.148,16.558s-9.136-9.6-9.136-16.558,4.093-12.6,9.136-12.6S217.344,57.427,217.344,64.38Z" transform="translate(-134.679 -48.647)" fill="#fff" stroke="#1f1f1f" stroke-linecap="round" stroke-linejoin="round" stroke-width="1"/>
      <path id="Path_590" data-name="Path 590" d="M212.356,59.25s-.629,1.8.136,2.564.641,1.911.505,3.452.259,2.466.777,1.923S214.8,59.508,214.8,59,212.356,59.25,212.356,59.25Z" transform="translate(-131.639 -47.006)" fill="#1f1f1f" stroke="#1f1f1f" stroke-linecap="round" stroke-linejoin="round" stroke-width="1"/>
      <path id="Path_591" data-name="Path 591" d="M199.462,63.924l.259,3.958a.789.789,0,0,0,1.023-.505c.259-.777-.382-3.205.259-4.475s3.07-1.923,3.218-2.86-1.233-2.552-1.233-3.193.382-1.233,3.588,1.788,9.074,3.7,12.144,2.947-.641-5.375-1.405-6.4,2.047-.259.505-2.811-6.9-4.216-12.267-2.305-8.445,4.611-7.681,7.3S199.462,63.924,199.462,63.924Z" transform="translate(-134.983 -49.239)" fill="#1f1f1f" stroke="#1f1f1f" stroke-linecap="round" stroke-linejoin="round" stroke-width="1"/>
      <path id="Path_592" data-name="Path 592" d="M236.437,231.761s-3.316-45.715-4.081-64.11-4.6-46.726-4.6-46.726l-11.466-1.405h-9.506l-12.538,1.11s-2.133,4.5-2.86,13.278c-.814,9.666-.259,24.1-.653,33.744-.777,18.382-4.093,64.11-4.093,64.11l-2.811,2.811v2.034l7.668,3.07,19.911-93.465.136-.21.123.21L231.579,239.7l7.668-3.07V234.6Z" transform="translate(-138.226 -32.872)" fill="#1f1f1f" stroke="#1f1f1f" stroke-linecap="round" stroke-linejoin="round" stroke-width="1"/>
      <path id="Path_593" data-name="Path 593" d="M185.372,214.49l-8.162,6.9v1.529h15.066l.764-5.363Z" transform="translate(-139.767 -10.756)" fill="#ff6a96" stroke="#1f1f1f" stroke-linecap="round" stroke-linejoin="round" stroke-width="1"/>
      <path id="Path_594" data-name="Path 594" d="M192.276,221.619l.21-1.529H177.21v1.529Z" transform="translate(-139.767 -9.451)" fill="#fff" stroke="#1f1f1f" stroke-linecap="round" stroke-linejoin="round" stroke-width="1"/>
      <path id="Path_595" data-name="Path 595" d="M230.016,214.49l8.174,6.9v1.529H223.124l-.764-5.363Z" transform="translate(-129.253 -10.756)" fill="#92e3a9" stroke="#1f1f1f" stroke-linecap="round" stroke-linejoin="round" stroke-width="1"/>
      <path id="Path_596" data-name="Path 596" d="M223.022,221.619l-.222-1.529h15.288v1.529Z" transform="translate(-129.15 -9.451)" fill="#fff" stroke="#1f1f1f" stroke-linecap="round" stroke-linejoin="round" stroke-width="1"/>
      <path id="Path_597" data-name="Path 597" d="M230.076,107.87l-7.866,3.144,2.762,5.19,6.473-3.588Z" transform="translate(-129.288 -35.585)" fill="#ff6a96" stroke="#1f1f1f" stroke-linecap="round" stroke-linejoin="round" stroke-width="1"/>
      <path id="Path_598" data-name="Path 598" d="M183.449,109.451l-6.066-2.971s-2.651,2.047-2.379,4.315a4.623,4.623,0,0,0,1.985,3.316l7.237-.308Z" transform="translate(-140.286 -35.909)" fill="#ff6a96" stroke="#1f1f1f" stroke-linecap="round" stroke-linejoin="round" stroke-width="1"/>
      <path id="Path_599" data-name="Path 599" d="M197.7,128.215h-3.156l-11.1-16.447s-4.13-1.911-6.867,1.233l15.5,18.234,2.158,3.033,3-3.588,3.7,1.233.986-1.048Z" transform="translate(-139.914 -34.811)" fill="#fff" stroke="#1f1f1f" stroke-linecap="round" stroke-linejoin="round" stroke-width="1"/>
    </g>
    <g id="freepik--character-1--inject-2" transform="translate(102.191 284.776)">
      <path id="Path_600" data-name="Path 600" d="M184.593,441.918c0,1.96-20.059,3.551-44.8,3.551S95,443.879,95,441.918s20.059-3.538,44.79-3.538S184.593,439.97,184.593,441.918Z" transform="translate(-95 -194.153)" fill="#1f1f1f"/>
      <path id="Path_601" data-name="Path 601" d="M111.674,433.52l8.618,7.274v1.615H104.4l1.11-7.8Z" transform="translate(-92.811 -195.285)" fill="#ff6a96" stroke="#1f1f1f" stroke-linecap="round" stroke-linejoin="round" stroke-width="1"/>
      <path id="Path_602" data-name="Path 602" d="M126.51,279.656s1.048-2.1,1.923-.173a9.259,9.259,0,0,1,.173,6.164c-.53.875-2.626,2.1-2.626,1.233S126.51,279.656,126.51,279.656Z" transform="translate(-87.785 -231.346)" fill="#fff" stroke="#1f1f1f" stroke-linecap="round" stroke-linejoin="round" stroke-width="1"/>
      <path id="Path_603" data-name="Path 603" d="M113.043,282.907s-1.59-1.726-1.886.358a9.173,9.173,0,0,0,1.541,5.93c.74.69,3.095,1.233,2.86.444S113.043,282.907,113.043,282.907Z" transform="translate(-91.245 -230.516)" fill="#fff" stroke="#1f1f1f" stroke-linecap="round" stroke-linejoin="round" stroke-width="1"/>
      <path id="Path_604" data-name="Path 604" d="M120.357,310.035c2.466,0,8.125-.407,8.125-.407l13.944-6.041,12.07-16.447,6.041-32.893a41.089,41.089,0,0,1-2.564-5.56,19.255,19.255,0,0,1,.74-4.932s.752-1.738,1-.247a17.258,17.258,0,0,1,0,3.7l.752,1.233a57.257,57.257,0,0,1,1.985-7.212c.752-1.492,2.466-1,2.466,0s.752,3.489,1,5.474-2.466,8.384-2.466,8.384l-.826,35.186s-17.495,28.11-18.493,29.145-.838,22.488-1.036,25.816,1.233,9.579.826,10.825-2.293,4.586-8.532,6.041-17.7.419-18.949-1.036-1.233-5.622-1.233-5.622-6.3-18.666-6.3-20.343c0-.974-1.652-7.927-3.021-13.5a7.927,7.927,0,0,1,5.388-9.456,62.88,62.88,0,0,1,9.086-2.108Z" transform="translate(-92.518 -240.285)" fill="#fff" stroke="#1f1f1f" stroke-linecap="round" stroke-linejoin="round" stroke-width="1"/>
      <path id="Path_605" data-name="Path 605" d="M128.478,306.045,142.422,300l12.07-16.447,5.129-27.888,3.7.111-.727,30.9S145.1,314.787,144.1,315.822s-.838,22.488-1.036,25.816,1.233,9.579.826,10.825-2.293,4.586-8.532,6.041-17.7.419-18.949-1.036-1.233-5.622-1.233-5.622-6.3-18.666-6.3-20.342c0-.962-1.615-7.767-2.971-13.3a8.137,8.137,0,0,1,5.523-9.715,61.906,61.906,0,0,1,8.951-2.034C122.856,306.452,128.478,306.045,128.478,306.045Z" transform="translate(-92.515 -236.702)" fill="#ff6a96" stroke="#1f1f1f" stroke-linecap="round" stroke-linejoin="round" stroke-width="1"/>
      <path id="Path_606" data-name="Path 606" d="M125.069,292.47a42.832,42.832,0,0,1,4.377,2.712c.616.629,3.7,11.244,3.7,11.244l-6.67-3.7-7.286,5.832s-2.7-7.915-2.466-10.825a7.163,7.163,0,0,1,2.91-4.8Z" transform="translate(-89.945 -228.132)" fill="#ff6a96" stroke="#1f1f1f" stroke-linecap="round" stroke-linejoin="round" stroke-width="1"/>
      <path id="Path_607" data-name="Path 607" d="M125.546,291.8l.2,16.447-7.484-14.992Z" transform="translate(-89.583 -228.288)" fill="#fff" stroke="#1f1f1f" stroke-linecap="round" stroke-linejoin="round" stroke-width="1"/>
      <path id="Path_608" data-name="Path 608" d="M112.837,286.2c1.122,6.448,6.473,14.659,11.1,13.845s6.9-10.369,5.782-16.816-5.844-11-10.516-10.171S111.7,279.753,112.837,286.2Z" transform="translate(-90.904 -232.676)" fill="#fff" stroke="#1f1f1f" stroke-linecap="round" stroke-linejoin="round" stroke-width="1"/>
      <path id="Path_609" data-name="Path 609" d="M130.478,285.636s-1.849.579-1.59-.111a7.4,7.4,0,0,0-.505-2.873,3.083,3.083,0,0,1-1.233-1.171c-.542-.888.173-2.392,0-3.538s-5.721,2.182-6.682,2.355-6.547-.234-6.547-.234,1.566,3.267,1.06,3.76-.592,2.268-.592,2.268a18.159,18.159,0,0,1,1.023,3.563c-.1.6-1.233,1.233-1.467.653s-1.159-5.511-1.159-5.511-1.307.419-1.775-2.256,0-8.877,2.466-10.492,8.63-2.688,11.318-1.788,5.511,6.732,5.314,8.926A40.291,40.291,0,0,0,130.478,285.636Z" transform="translate(-91.309 -233.381)" fill="#1f1f1f" stroke="#1f1f1f" stroke-linecap="round" stroke-linejoin="round" stroke-width="1"/>
      <path id="Path_610" data-name="Path 610" d="M120.292,439.555v1.615H104.4l.333-2.33h14.721Z" transform="translate(-92.811 -194.046)" fill="#ff6a96" stroke="#1f1f1f" stroke-linecap="round" stroke-linejoin="round" stroke-width="1"/>
      <path id="Path_611" data-name="Path 611" d="M142.92,432.99l10.06,7.927v1.615H136.09l1.11-9.3Z" transform="translate(-85.431 -195.408)" fill="#ff6a96" stroke="#1f1f1f" stroke-linecap="round" stroke-linejoin="round" stroke-width="1"/>
      <path id="Path_612" data-name="Path 612" d="M152.98,439.555v1.615H136.09l.333-2.33H152.13Z" transform="translate(-85.431 -194.046)" fill="#ff6a96" stroke="#1f1f1f" stroke-linecap="round" stroke-linejoin="round" stroke-width="1"/>
      <path id="Path_613" data-name="Path 613" d="M143.963,334.18s5.375,27.012,6.879,37.714,2.737,40.056,2.737,50.758-3.489,33.362-3.489,33.362l-5.721.247s-4.932-59.178-6.473-63.7-4.932-17.421-4.932-17.421-3.982,32.055-4.475,35.84-17.223,46.27-17.223,46.27l-5.967.493s9.7-47.281,9.949-50.548-1.985-48.28-.74-56.244,1.985-13.179,1.985-13.179S134.112,340.27,143.963,334.18Z" transform="translate(-92.601 -218.419)" fill="#1f1f1f" stroke="#1f1f1f" stroke-linecap="round" stroke-linejoin="round" stroke-width="1"/>
      <line id="Line_2" data-name="Line 2" y1="15.929" x2="1.751" transform="translate(40.315 140.776)" fill="none" stroke="#000" stroke-linecap="round" stroke-linejoin="round" stroke-width="1"/>
      <path id="Path_614" data-name="Path 614" d="M108.911,301.29s-4.525,3.995-1.516,9.259c2.034,3.538,20.959,30.6,24.041,31.451s38.392.2,38.392.2l7.792-.432,5.93-3.4-7.829-.234s4.932-2.651,2.577-2.527-9.949,4.3-9.949,4.3l-32.955-5.942-12.9-24.029" transform="translate(-92.354 -226.078)" fill="#ff6a96" stroke="#1f1f1f" stroke-linecap="round" stroke-linejoin="round" stroke-width="1"/>
      <path id="Path_615" data-name="Path 615" d="M166.72,329.121c-2.379.136-9.949,4.3-9.949,4.3l-.69-.123.136,2.466h2.034l7.792-.432,5.93-3.4-7.829-.234S169.087,328.973,166.72,329.121Z" transform="translate(-80.776 -219.599)" fill="#fff" stroke="#1f1f1f" stroke-linecap="round" stroke-linejoin="round" stroke-width="1"/>
    </g>
    <g id="freepik--Icons--inject-2" transform="translate(168.902 146.268)">
      <g transform="matrix(1, 0, 0, 1, -104.78, -97.54)" filter="url(#Rectangle_51)">
        <rect id="Rectangle_51-2" data-name="Rectangle 51" width="115.891" height="115.891" rx="7.24" transform="translate(247.47 232.3)"/>
      </g>
      <path id="Path_616" data-name="Path 616" d="M375.984,288.1l-19.171-27-29.7,45.3-30.181-11.688-25.373,42.4a5.215,5.215,0,0,0,4.475,7.89h91.036A8.926,8.926,0,0,0,376,336.071Z" transform="translate(-120.766 -96.93)" fill="#fff"/>
      <circle id="Ellipse_49" data-name="Ellipse 49" cx="12.403" cy="12.403" r="12.403" transform="translate(160.694 148.673)" fill="#fff"/>
      <path id="Path_617" data-name="Path 617" d="M307.381,320.719a2.392,2.392,0,1,1,1.141,2.214,2.392,2.392,0,0,1-1.141-2.214Z" transform="translate(-112.253 -83.563)" fill="#1f1f1f"/>
      <path id="Path_618" data-name="Path 618" d="M327.782,318.019a6.436,6.436,0,0,1-6.6,6.818,5.141,5.141,0,0,1-3.982-1.6V329.4H313.37v-18h3.7v1.516a5.178,5.178,0,0,1,4.155-1.714,6.423,6.423,0,0,1,6.559,6.818Zm-3.884,0a3.378,3.378,0,1,0-3.366,3.7,3.341,3.341,0,0,0,3.366-3.7Z" transform="translate(-110.857 -85.264)" fill="#1f1f1f"/>
      <path id="Path_619" data-name="Path 619" d="M340.677,317.119V324.7H336.83v-6.99c0-2.145-.986-3.132-2.675-3.132s-3.181,1.134-3.181,3.575V324.7H327.14V311.4h3.7v1.541a5.844,5.844,0,0,1,4.389-1.738C338.31,311.2,340.677,313.013,340.677,317.119Z" transform="translate(-107.65 -85.263)" fill="#1f1f1f"/>
      <path id="Path_620" data-name="Path 620" d="M354.848,311.4v11.022c0,4.932-2.663,7.188-7.4,7.188a10.887,10.887,0,0,1-6.5-1.825l1.529-2.749a7.94,7.94,0,0,0,4.673,1.492c2.7,0,3.884-1.233,3.884-3.612v-.567A5.437,5.437,0,0,1,346.859,324a6.4,6.4,0,0,1,0-12.8,5.326,5.326,0,0,1,4.377,1.886V311.4Zm-3.8,6.164a3.489,3.489,0,1,0-3.464,3.242,3.218,3.218,0,0,0,3.464-3.205Z" transform="translate(-104.549 -85.264)" fill="#1f1f1f"/>
      <g transform="matrix(1, 0, 0, 1, -104.78, -97.54)" filter="url(#Rectangle_52)">
        <rect id="Rectangle_52-2" data-name="Rectangle 52" width="115.891" height="115.891" rx="7.24" transform="translate(104.78 232.3)"/>
      </g>
      <path id="Path_621" data-name="Path 621" d="M260.247,288.1l-19.171-27-29.7,45.3-30.193-11.688-25.373,42.4a5.215,5.215,0,0,0,4.463,7.89h91.048a8.926,8.926,0,0,0,8.926-8.926Z" transform="translate(-147.722 -96.93)" fill="#fff"/>
      <circle id="Ellipse_50" data-name="Ellipse 50" cx="12.403" cy="12.403" r="12.403" transform="translate(18 148.673)" fill="#fff"/>
      <path id="Path_622" data-name="Path 622" d="M196.25,320.886a2.626,2.626,0,1,1,2.626,2.626A2.626,2.626,0,0,1,196.25,320.886Z" transform="translate(-138.132 -83.618)" fill="#1f1f1f"/>
      <path id="Path_623" data-name="Path 623" d="M199.44,331.045l1.134-3.058a3.132,3.132,0,0,0,1.788.518c1.048,0,1.726-.678,1.726-2.108v-14.56H208.3V326.36a5.042,5.042,0,0,1-5.486,5.5A6.164,6.164,0,0,1,199.44,331.045Zm4.13-23.6a2.466,2.466,0,0,1,2.626-2.355,2.367,2.367,0,0,1,2.626,2.269,2.638,2.638,0,0,1-5.252.086Z" transform="translate(-137.389 -86.688)" fill="#1f1f1f"/>
      <path id="Path_624" data-name="Path 624" d="M225.642,317.875a7.064,7.064,0,0,1-7.249,7.5,5.622,5.622,0,0,1-4.377-1.763V330.4H209.8V310.6h4.019v1.677a5.671,5.671,0,0,1,4.574-1.886,7.064,7.064,0,0,1,7.249,7.484Zm-4.266,0a3.7,3.7,0,1,0-.958,2.833,3.7,3.7,0,0,0,.958-2.833Z" transform="translate(-134.977 -85.453)" fill="#1f1f1f"/>
      <path id="Path_625" data-name="Path 625" d="M240.164,310.6v12.119c0,5.412-2.922,7.9-8.174,7.9a11.934,11.934,0,0,1-7.138-2.01l1.677-3.021a8.7,8.7,0,0,0,5.141,1.652c2.971,0,4.266-1.356,4.266-3.982v-.629a5.98,5.98,0,0,1-4.549,1.825,7.04,7.04,0,1,1,0-14.067,5.844,5.844,0,0,1,4.821,2.071V310.6ZM236,317.419a3.834,3.834,0,1,0-3.822,3.575A3.551,3.551,0,0,0,236,317.419Z" transform="translate(-131.658 -85.453)" fill="#1f1f1f"/>
      <g transform="matrix(1, 0, 0, 1, -104.78, -97.54)" filter="url(#Path_626)">
        <path id="Path_626-2" data-name="Path 626" d="M206.81,234.9V136.866a8.926,8.926,0,0,1,8.926-8.926h98.039a8.926,8.926,0,0,1,8.926,8.926V234.9a8.926,8.926,0,0,1-8.926,8.926H215.736a8.926,8.926,0,0,1-8.926-8.926Z" transform="translate(-30.89 -30.4)"/>
      </g>
      <path id="Path_627" data-name="Path 627" d="M224.521,183.576a3.8,3.8,0,1,1,1.83,3.468,3.8,3.8,0,0,1-1.83-3.468Z" transform="translate(-131.55 -115.817)" fill="#fff"/>
      <path id="Path_628" data-name="Path 628" d="M232.53,179.272c0-6.325,4.932-10.812,11.712-10.812,4.414,0,7.89,1.911,9.407,5.338l-4.722,2.54a5.252,5.252,0,0,0-4.722-2.885,5.832,5.832,0,0,0,0,11.638,5.166,5.166,0,0,0,4.722-2.9l4.722,2.577c-1.516,3.366-4.932,5.314-9.407,5.314C237.412,190.085,232.53,185.6,232.53,179.272Z" transform="translate(-129.683 -118.504)" fill="#fff"/>
      <path id="Path_629" data-name="Path 629" d="M250.87,187.817l2.022-4.364a14.376,14.376,0,0,0,7.3,2.022c2.811,0,3.871-.74,3.871-1.911,0-3.44-12.686.074-12.686-8.31,0-3.982,3.588-6.793,9.715-6.793a17.26,17.26,0,0,1,8.088,1.825l-2.034,4.34a12.082,12.082,0,0,0-6.053-1.566c-2.725,0-3.9.863-3.9,1.96,0,3.588,12.686.111,12.686,8.384,0,3.908-3.7,6.682-9.925,6.682a17.914,17.914,0,0,1-9.086-2.268Z" transform="translate(-125.412 -118.504)" fill="#fff"/>
      <path id="Path_630" data-name="Path 630" d="M267.68,187.817l2.022-4.364a14.425,14.425,0,0,0,7.311,2.022c2.811,0,3.859-.74,3.859-1.911,0-3.44-12.686.074-12.686-8.31,0-3.982,3.588-6.793,9.715-6.793a17.26,17.26,0,0,1,8.088,1.825l-2.034,4.34a12.057,12.057,0,0,0-6.053-1.566c-2.725,0-3.9.863-3.9,1.96,0,3.588,12.686.111,12.686,8.384,0,3.908-3.7,6.682-9.863,6.682a17.938,17.938,0,0,1-9.148-2.269Z" transform="translate(-121.497 -118.504)" fill="#fff"/>
      <g transform="matrix(1, 0, 0, 1, -104.78, -97.54)" filter="url(#Path_631)">
        <path id="Path_631-2" data-name="Path 631" d="M206.81,453.688v-98a8.926,8.926,0,0,1,8.926-8.926h98.039a8.926,8.926,0,0,1,8.926,8.926v98.039a8.926,8.926,0,0,1-8.926,8.926H215.736a8.926,8.926,0,0,1-8.926-8.963Z" transform="translate(-30.89 20.56)"/>
      </g>
      <path id="Path_632" data-name="Path 632" d="M236.82,400.285a3.995,3.995,0,1,1,3.995,3.995,3.994,3.994,0,0,1-3.995-3.995Z" transform="translate(-128.684 -65.447)" fill="#fff"/>
      <path id="Path_633" data-name="Path 633" d="M241.66,415.741l1.726-4.648a4.746,4.746,0,0,0,2.725.777c1.6,0,2.626-1.023,2.626-3.205V386.473h6.423v22.143c0,5.116-3,8.359-8.359,8.359a9.346,9.346,0,0,1-5.141-1.233Zm6.3-35.9a3.7,3.7,0,0,1,3.995-3.588c2.392,0,3.995,1.479,3.995,3.464a4.007,4.007,0,0,1-7.989.123Z" transform="translate(-127.557 -70.116)" fill="#fff"/>
      <path id="Path_634" data-name="Path 634" d="M255.69,404.729l2.133-4.611a15.238,15.238,0,0,0,7.706,2.133c2.959,0,4.081-.777,4.081-2.01,0-3.625-13.389.074-13.389-8.778,0-4.192,3.785-7.163,10.258-7.163A18.222,18.222,0,0,1,275,386.236l-2.145,4.574a12.748,12.748,0,0,0-6.374-1.652c-2.885,0-4.118.912-4.118,2.059,0,3.785,13.377.123,13.377,8.852,0,4.118-3.822,7.052-10.455,7.052A19.036,19.036,0,0,1,255.69,404.729Z" transform="translate(-124.29 -68.24)" fill="#fff"/>
    </g>
  </g>
</svg>
