<svg xmlns="http://www.w3.org/2000/svg" xmlns:xlink="http://www.w3.org/1999/xlink" width="73.619" height="73.602" viewBox="0 0 73.619 73.602">
  <defs>
    <linearGradient id="linear-gradient" x1="0.5" x2="0.5" y2="1" gradientUnits="objectBoundingBox">
      <stop offset="0" stop-color="#FF0371"/>
      <stop offset="1" stop-color="#FF0371"/>
    </linearGradient>
  </defs>
  <g id="logo-white" transform="translate(-22.881 -17.029)">
    <path id="Path_1" data-name="Path 1" d="M74.7,52.17a13.881,13.881,0,0,1-4.22,7.05L59.62,68.93l-10.7-9.69a13.842,13.842,0,0,1-4.23-7.04,8.124,8.124,0,0,1-.26-3.13c.4-4.51,3.58-8.3,8-8.3a7.775,7.775,0,0,1,7.17,4.97,8,8,0,0,1,7.34-4.98c4.42,0,7.61,3.78,8.02,8.29A8.616,8.616,0,0,1,74.7,52.17Z" fill="url(#linear-gradient)"/>
    <path id="Path_2" data-name="Path 2" d="M95,50.66v6.36a3.118,3.118,0,0,1-3.12,3.12h-.01a3.153,3.153,0,0,0-3.01,2.29,29.934,29.934,0,0,1-2.46,5.95,3.146,3.146,0,0,0,.51,3.75h0a3.126,3.126,0,0,1,0,4.42l-4.5,4.5a3.126,3.126,0,0,1-4.42,0l-.01-.01a3.144,3.144,0,0,0-3.75-.5A30.094,30.094,0,0,1,68.29,83,3.144,3.144,0,0,0,66,86.01h0a3.118,3.118,0,0,1-3.12,3.12H56.52a3.118,3.118,0,0,1-3.12-3.12h0A3.153,3.153,0,0,0,51.11,83a29.934,29.934,0,0,1-5.95-2.46,3.146,3.146,0,0,0-3.75.51h0a3.126,3.126,0,0,1-4.42,0l-4.5-4.5a3.126,3.126,0,0,1,0-4.42h0A3.161,3.161,0,0,0,33,68.38a29.934,29.934,0,0,1-2.46-5.95,3.144,3.144,0,0,0-3.01-2.29H27.5a3.118,3.118,0,0,1-3.12-3.12V50.66a3.118,3.118,0,0,1,3.12-3.12h.01a3.153,3.153,0,0,0,3.01-2.29,30.434,30.434,0,0,1,2.46-5.95,3.161,3.161,0,0,0-.5-3.75l-.01-.01a3.126,3.126,0,0,1,0-4.42l4.5-4.5a3.126,3.126,0,0,1,4.42,0h0a3.161,3.161,0,0,0,3.75.51,30.571,30.571,0,0,1,5.95-2.47,3.144,3.144,0,0,0,2.29-3.01h0a3.118,3.118,0,0,1,3.12-3.12h6.36a3.118,3.118,0,0,1,3.12,3.12h0a3.153,3.153,0,0,0,2.29,3.01,29.536,29.536,0,0,1,5.94,2.47,3.159,3.159,0,0,0,3.75-.5l.01-.01a3.126,3.126,0,0,1,4.42,0l4.5,4.5a3.126,3.126,0,0,1,0,4.42l-.01.01a3.142,3.142,0,0,0-.5,3.75,29.934,29.934,0,0,1,2.46,5.95,3.144,3.144,0,0,0,3.01,2.29h.01A3.128,3.128,0,0,1,95,50.66Z" fill="none" stroke="#fa1334" stroke-miterlimit="10" stroke-width="3"/>
  </g>
</svg>
