<svg xmlns="http://www.w3.org/2000/svg" width="341.046" height="75.307" viewBox="0 0 341.046 75.307">
  <g id="Group_3003" data-name="Group 3003" transform="translate(-3979.675 153.608)">
    <path id="Path_36" data-name="Path 36" d="M261.812,211.626H227.726v7.811H248.28L227.726,255.02h34.086v-7.811H241.259Zm40.464,0v5.027a21.7,21.7,0,1,0,0,33.34v5.026h7.811V211.626ZM288.39,247.209h0a13.886,13.886,0,1,1,13.886-13.886,13.886,13.886,0,0,1-13.886,13.886Zm28.575-35.583h0v61.42h7.78l.031-23.052a21.7,21.7,0,1,0,0-33.34v-5.027Zm7.811,21.7h0a13.886,13.886,0,1,1,13.886,13.886,13.886,13.886,0,0,1-13.886-13.886Zm43.033-21.7h0l.017,61.42h7.78l.014-23.052a21.7,21.7,0,1,0,0-33.34v-5.027Zm7.811,21.7h0a13.886,13.886,0,1,1,13.886,13.886,13.886,13.886,0,0,1-13.886-13.886Zm48.28-13.89h14.862v-7.811H423.9V197.739h-7.811v57.28H423.9Zm16.063,27.416H462.41c6.646-.29,8.684-7.24,3.363-9.477-.671-.557-18.044-1.891-19.753-2.679-10.054-4.8-6.719-22.935,7.455-23.547l20.375.121v7.773l-19.252-.176c-6.8-.036-8.147,6.85-4.663,8.91,1.893,1,18.417,1.728,19.831,3.054,11.011,4.116,7.911,22.19-5.072,23.577l-24.678.167Z" transform="translate(3844.235 -351.347)" fill="#fff" fill-rule="evenodd"/>
    <g id="Group_20" data-name="Group 20" transform="translate(3979.671 -150.158)">
      <path id="Path_34" data-name="Path 34" d="M100.5,215.963c.465,9.511-39.223,64.461-44.354,61.246-5.512-3.453-7.72-11.858-5.871-15.368l22.482-33.025L58.6,230.993c-10.219.281-17.686-.457-18.573-13.037,16.063-2.876,32.1-5.839,48.155-8.752C93.2,208.292,100.159,209.028,100.5,215.963Z" transform="translate(-40.023 -208.889)" fill="#fff" fill-rule="evenodd"/>
      <path id="Path_35" data-name="Path 35" d="M168.9,258.545l3.75,20.445c1.168,9.771-.5,16.706-11.938,18.43-2.93-1.265-5.232-14.65-4.948-19.176C159.055,273.856,166.58,263.993,168.9,258.545Z" transform="translate(-105.837 -237.13)" fill="#fff" fill-rule="evenodd"/>
    </g>
  </g>
</svg>
