<?xml version="1.0" encoding="utf-8"?>
<!-- Generator: Adobe Illustrator 23.0.6, SVG Export Plug-In . SVG Version: 6.00 Build 0)  -->
<svg version="1.1" id="Camada_1" xmlns="http://www.w3.org/2000/svg" xmlns:xlink="http://www.w3.org/1999/xlink" x="0px" y="0px"
	 viewBox="0 0 332 105" style="enable-background:new 0 0 332 105;" xml:space="preserve">
<style type="text/css">
	.st0{fill:none;stroke:#000000;stroke-width:3;stroke-miterlimit:10;}
	.st1{fill:#FF0B32;}
</style>
<path d="M74.7,52.17c-0.65,2.75-2.17,5.19-4.22,7.05l-10.86,9.71l-10.7-9.69c-2.06-1.86-3.58-4.3-4.23-7.04
	c-0.48-2.02-0.26-3.13-0.26-3.13c0.4-4.51,3.58-8.3,8-8.3c3.28,0,5.93,2.04,7.17,4.97c1.23-2.93,4.06-4.98,7.34-4.98
	c4.42,0,7.61,3.78,8.02,8.29C74.95,49.04,75.17,50.16,74.7,52.17z"/>
<path class="st0" d="M95,50.66v6.36c0,1.73-1.4,3.12-3.12,3.12h-0.01c-1.4,0-2.61,0.94-3.01,2.29c-0.61,2.09-1.44,4.08-2.46,5.95
	c-0.67,1.23-0.49,2.76,0.51,3.75l0,0c1.22,1.22,1.22,3.2,0,4.42l-4.5,4.5c-1.22,1.22-3.2,1.22-4.42,0l-0.01-0.01
	c-0.99-0.99-2.52-1.18-3.75-0.5c-1.87,1.02-3.86,1.85-5.94,2.46C66.94,83.4,66,84.6,66,86.01l0,0c0,1.73-1.4,3.12-3.12,3.12h-6.36
	c-1.73,0-3.12-1.4-3.12-3.12l0,0c0-1.4-0.94-2.61-2.29-3.01c-2.09-0.61-4.08-1.44-5.95-2.46c-1.23-0.67-2.76-0.49-3.75,0.51l0,0
	c-1.22,1.22-3.2,1.22-4.42,0l-4.5-4.5c-1.22-1.22-1.22-3.2,0-4.42l0,0c0.99-0.99,1.18-2.52,0.51-3.75
	c-1.02-1.87-1.85-3.86-2.46-5.95c-0.4-1.35-1.6-2.29-3.01-2.29H27.5c-1.73,0-3.12-1.4-3.12-3.12v-6.36c0-1.73,1.4-3.12,3.12-3.12
	h0.01c1.4,0,2.61-0.94,3.01-2.29c0.61-2.08,1.44-4.07,2.46-5.95c0.67-1.23,0.49-2.75-0.5-3.75l-0.01-0.01
	c-1.22-1.22-1.22-3.2,0-4.42l4.5-4.5c1.22-1.22,3.2-1.22,4.42,0l0,0c0.99,0.99,2.52,1.18,3.75,0.51c1.87-1.02,3.86-1.85,5.95-2.47
	c1.35-0.4,2.29-1.6,2.29-3.01l0,0c0-1.73,1.4-3.12,3.12-3.12h6.36c1.73,0,3.12,1.4,3.12,3.12l0,0c0,1.4,0.94,2.61,2.29,3.01
	c2.08,0.61,4.07,1.44,5.94,2.47c1.23,0.67,2.76,0.49,3.75-0.5l0.01-0.01c1.22-1.22,3.2-1.22,4.42,0l4.5,4.5
	c1.22,1.22,1.22,3.2,0,4.42l-0.01,0.01c-0.99,0.99-1.18,2.51-0.5,3.75c1.02,1.87,1.85,3.86,2.46,5.95c0.4,1.35,1.6,2.29,3.01,2.29
	h0.01C93.6,47.54,95,48.94,95,50.66z"/>
<path d="M109.53,42.05v-5.76h7v5.76C116.53,42.05,109.53,42.05,109.53,42.05z M116.53,45.99v25.47h-7V45.99H116.53z"/>
<path d="M145.35,45.67c-0.46-0.74-1.03-1.39-1.72-1.94c-0.69-0.56-1.47-0.99-2.34-1.31c-0.87-0.31-1.78-0.47-2.73-0.47
	c-1.74,0-3.22,0.34-4.43,1.01c-1.21,0.67-2.2,1.58-2.95,2.71c-0.76,1.13-1.31,2.42-1.65,3.87s-0.52,2.94-0.52,4.48
	c0,1.48,0.17,2.91,0.52,4.31c0.34,1.4,0.89,2.65,1.65,3.77c0.75,1.12,1.74,2.01,2.95,2.68c1.21,0.67,2.69,1.01,4.43,1.01
	c2.37,0,4.21-0.72,5.54-2.17c1.33-1.44,2.14-3.35,2.44-5.71h7.49c-0.2,2.2-0.71,4.19-1.52,5.96c-0.82,1.77-1.91,3.29-3.25,4.53
	c-1.35,1.25-2.93,2.2-4.73,2.86c-1.81,0.66-3.79,0.98-5.96,0.98c-2.69,0-5.12-0.47-7.26-1.4c-2.15-0.94-3.97-2.23-5.44-3.87
	c-1.48-1.64-2.61-3.57-3.4-5.79s-1.18-4.61-1.18-7.17c0-2.63,0.39-5.07,1.18-7.31c0.79-2.25,1.92-4.21,3.4-5.89s3.29-2.99,5.44-3.94
	c2.15-0.95,4.57-1.43,7.26-1.43c1.94,0,3.77,0.28,5.49,0.84s3.27,1.37,4.63,2.44s2.49,2.39,3.38,3.97s1.44,3.38,1.68,5.42h-7.49
	C146.1,47.22,145.8,46.41,145.35,45.67z"/>
<path d="M165.74,36.28v35.17h-7V36.28H165.74z"/>
<path d="M188.5,71.46v-3.55h-0.15c-0.89,1.48-2.04,2.54-3.45,3.2s-2.85,0.98-4.33,0.98c-1.87,0-3.41-0.24-4.61-0.74
	s-2.14-1.19-2.83-2.09c-0.69-0.9-1.17-2-1.45-3.3s-0.42-2.73-0.42-4.31V45.99h6.99v14.38c0,2.1,0.33,3.67,0.99,4.7
	c0.66,1.04,1.82,1.55,3.5,1.55c1.9,0,3.28-0.57,4.14-1.7c0.85-1.13,1.28-3,1.28-5.59V45.99h7v25.47H188.5z"/>
<path d="M207.47,36.28v12.81h0.1c0.85-1.31,2.01-2.27,3.47-2.88s2.98-0.91,4.56-0.91c1.28,0,2.55,0.26,3.79,0.79
	c1.25,0.53,2.37,1.33,3.38,2.42c1,1.08,1.81,2.47,2.44,4.16s0.94,3.7,0.94,6.04s-0.31,4.34-0.94,6.03s-1.44,3.08-2.44,4.16
	s-2.13,1.89-3.38,2.41c-1.25,0.53-2.51,0.79-3.79,0.79c-1.87,0-3.55-0.29-5.02-0.89c-1.48-0.59-2.6-1.59-3.35-3h-0.1v3.25h-6.65
	V36.28H207.47z M218.8,55.64c-0.23-0.98-0.59-1.85-1.09-2.61c-0.49-0.76-1.11-1.36-1.84-1.8c-0.74-0.45-1.64-0.67-2.69-0.67
	c-1.02,0-1.9,0.22-2.66,0.67c-0.75,0.44-1.38,1.04-1.87,1.8c-0.49,0.76-0.85,1.63-1.08,2.61c-0.23,0.99-0.34,2.02-0.34,3.1
	c0,1.05,0.12,2.07,0.34,3.05c0.23,0.99,0.59,1.86,1.08,2.61c0.49,0.76,1.12,1.35,1.87,1.8c0.76,0.44,1.64,0.66,2.66,0.66
	c1.05,0,1.94-0.22,2.69-0.66c0.74-0.45,1.35-1.04,1.84-1.8c0.49-0.76,0.85-1.63,1.09-2.61c0.23-0.98,0.34-2,0.34-3.05
	C219.15,57.66,219.03,56.63,218.8,55.64z"/>
<path d="M236.46,65.13c0.31,0.54,0.71,0.99,1.21,1.33c0.49,0.34,1.06,0.6,1.7,0.76c0.64,0.17,1.31,0.25,2,0.25
	c0.49,0,1.01-0.06,1.55-0.17c0.54-0.11,1.03-0.29,1.48-0.54s0.81-0.57,1.11-0.99c0.3-0.41,0.44-0.93,0.44-1.55
	c0-1.05-0.7-1.84-2.09-2.36s-3.34-1.05-5.84-1.58c-1.02-0.23-2.01-0.5-2.98-0.81s-1.83-0.72-2.59-1.23
	c-0.75-0.51-1.36-1.15-1.82-1.92c-0.46-0.77-0.69-1.72-0.69-2.83c0-1.64,0.32-2.99,0.96-4.04s1.49-1.88,2.54-2.49
	c1.05-0.61,2.23-1.03,3.55-1.28c1.32-0.24,2.66-0.37,4.04-0.37s2.71,0.13,4.01,0.39s2.45,0.71,3.47,1.33
	c1.02,0.63,1.86,1.45,2.54,2.49s1.07,2.34,1.21,3.92h-6.65c-0.1-1.35-0.61-2.26-1.53-2.73c-0.92-0.48-2-0.71-3.25-0.71
	c-0.39,0-0.82,0.02-1.28,0.07c-0.46,0.05-0.88,0.16-1.25,0.32c-0.38,0.17-0.7,0.4-0.96,0.72c-0.26,0.31-0.39,0.73-0.39,1.26
	c0,0.62,0.23,1.13,0.69,1.53c0.46,0.39,1.06,0.72,1.8,0.96c0.74,0.24,1.58,0.47,2.54,0.66c0.95,0.2,1.92,0.41,2.91,0.64
	c1.02,0.23,2.01,0.51,2.98,0.84s1.83,0.76,2.59,1.3c0.75,0.54,1.36,1.21,1.82,2.02c0.46,0.8,0.69,1.8,0.69,2.98
	c0,1.68-0.34,3.08-1.01,4.21c-0.67,1.13-1.55,2.04-2.63,2.73s-2.33,1.17-3.72,1.45c-1.4,0.28-2.81,0.42-4.26,0.42
	c-1.48,0-2.92-0.15-4.33-0.44s-2.67-0.79-3.77-1.48s-2-1.6-2.71-2.73c-0.71-1.13-1.09-2.55-1.16-4.26h6.65
	C235.99,63.94,236.15,64.59,236.46,65.13z"/>
<path class="st1" d="M265.06,63.87v7.59h-7.73v-7.59H265.06z"/>
<path class="st1" d="M270.92,42.05v-5.76h7v5.76C277.92,42.05,270.92,42.05,270.92,42.05z M277.92,45.99v25.47h-7V45.99H277.92z"/>
<path class="st1" d="M283.58,53.21c0.63-1.66,1.51-3.07,2.66-4.24c1.15-1.16,2.53-2.07,4.14-2.71c1.61-0.64,3.42-0.96,5.42-0.96
	s3.82,0.32,5.44,0.96s3.01,1.55,4.16,2.71c1.15,1.17,2.04,2.58,2.66,4.24c0.62,1.66,0.93,3.51,0.93,5.54c0,2.04-0.31,3.88-0.93,5.52
	c-0.63,1.64-1.51,3.05-2.66,4.21c-1.15,1.17-2.54,2.06-4.16,2.69c-1.63,0.62-3.44,0.93-5.44,0.93s-3.81-0.31-5.42-0.93
	c-1.61-0.62-2.99-1.52-4.14-2.69c-1.15-1.16-2.04-2.57-2.66-4.21s-0.93-3.48-0.93-5.52C282.64,56.71,282.96,54.86,283.58,53.21z
	 M289.94,61.73c0.2,0.97,0.53,1.84,1.01,2.61s1.11,1.39,1.9,1.85s1.77,0.69,2.95,0.69c1.18,0,2.17-0.23,2.98-0.69
	s1.45-1.07,1.92-1.85c0.48-0.77,0.81-1.64,1.01-2.61s0.3-1.96,0.3-2.98s-0.1-2.02-0.3-3c-0.2-0.98-0.53-1.85-1.01-2.61
	c-0.47-0.76-1.11-1.37-1.92-1.85c-0.81-0.48-1.8-0.71-2.98-0.71c-1.18,0-2.17,0.24-2.95,0.71c-0.79,0.48-1.42,1.09-1.9,1.85
	c-0.47,0.76-0.81,1.63-1.01,2.61c-0.2,0.99-0.3,1.99-0.3,3C289.64,59.76,289.74,60.76,289.94,61.73z"/>
</svg>
