<svg xmlns="http://www.w3.org/2000/svg" viewBox="0 0 332 105"><path d="M74.7 52.17c-.65 2.75-2.17 5.19-4.22 7.05l-10.86 9.71-10.7-9.69c-2.06-1.86-3.58-4.3-4.23-7.04-.48-2.02-.26-3.13-.26-3.13.4-4.51 3.58-8.3 8-8.3 3.28 0 5.93 2.04 7.17 4.97 1.23-2.93 4.06-4.98 7.34-4.98 4.42 0 7.61 3.78 8.02 8.29-.01-.01.21 1.11-.26 3.12z"/><path d="M95 50.66v6.36c0 1.73-1.4 3.12-3.12 3.12h-.01c-1.4 0-2.61.94-3.01 2.29-.61 2.09-1.44 4.08-2.46 5.95-.67 1.23-.49 2.76.51 3.75h0a3.126 3.126 0 010 4.42l-4.5 4.5a3.126 3.126 0 01-4.42 0l-.01-.01c-.99-.99-2.52-1.18-3.75-.5A30.094 30.094 0 0168.29 83c-1.35.4-2.29 1.6-2.29 3.01h0c0 1.73-1.4 3.12-3.12 3.12h-6.36c-1.73 0-3.12-1.4-3.12-3.12h0c0-1.4-.94-2.61-2.29-3.01-2.09-.61-4.08-1.44-5.95-2.46-1.23-.67-2.76-.49-3.75.51h0a3.126 3.126 0 01-4.42 0l-4.5-4.5a3.126 3.126 0 010-4.42h0c.99-.99 1.18-2.52.51-3.75a29.934 29.934 0 01-2.46-5.95c-.4-1.35-1.6-2.29-3.01-2.29h-.03c-1.73 0-3.12-1.4-3.12-3.12v-6.36c0-1.73 1.4-3.12 3.12-3.12h.01c1.4 0 2.61-.94 3.01-2.29.61-2.08 1.44-4.07 2.46-5.95.67-1.23.49-2.75-.5-3.75l-.01-.01a3.126 3.126 0 010-4.42l4.5-4.5a3.126 3.126 0 014.42 0h0c.99.99 2.52 1.18 3.75.51 1.87-1.02 3.86-1.85 5.95-2.47 1.35-.4 2.29-1.6 2.29-3.01h0c0-1.73 1.4-3.12 3.12-3.12h6.36c1.73 0 3.12 1.4 3.12 3.12h0c0 1.4.94 2.61 2.29 3.01 2.08.61 4.07 1.44 5.94 2.47 1.23.67 2.76.49 3.75-.5l.01-.01a3.126 3.126 0 014.42 0l4.5 4.5a3.126 3.126 0 010 4.42l-.01.01c-.99.99-1.18 2.51-.5 3.75 1.02 1.87 1.85 3.86 2.46 5.95.4 1.35 1.6 2.29 3.01 2.29h.01c1.74 0 3.14 1.4 3.14 3.12z" fill="none" stroke="#000" stroke-width="3" stroke-miterlimit="10"/><path d="M109.53 42.05v-5.76h7v5.76h-7zm7 3.94v25.47h-7V45.99h7zm28.82-.32a7.571 7.571 0 00-1.72-1.94c-.69-.56-1.47-.99-2.34-1.31-.87-.31-1.78-.47-2.73-.47-1.74 0-3.22.34-4.43 1.01-1.21.67-2.2 1.58-2.95 2.71-.76 1.13-1.31 2.42-1.65 3.87s-.52 2.94-.52 4.48c0 1.48.17 2.91.52 4.31.34 1.4.89 2.65 1.65 3.77.75 1.12 1.74 2.01 2.95 2.68 1.21.67 2.69 1.01 4.43 1.01 2.37 0 4.21-.72 5.54-2.17 1.33-1.44 2.14-3.35 2.44-5.71h7.49c-.2 2.2-.71 4.19-1.52 5.96-.82 1.77-1.91 3.29-3.25 4.53-1.35 1.25-2.93 2.2-4.73 2.86-1.81.66-3.79.98-5.96.98-2.69 0-5.12-.47-7.26-1.4-2.15-.94-3.97-2.23-5.44-3.87-1.48-1.64-2.61-3.57-3.4-5.79s-1.18-4.61-1.18-7.17c0-2.63.39-5.07 1.18-7.31.79-2.25 1.92-4.21 3.4-5.89s3.29-2.99 5.44-3.94c2.15-.95 4.57-1.43 7.26-1.43 1.94 0 3.77.28 5.49.84s3.27 1.37 4.63 2.44 2.49 2.39 3.38 3.97 1.44 3.38 1.68 5.42h-7.49c-.16-.89-.46-1.7-.91-2.44zm20.39-9.39v35.17h-7V36.28h7zm22.76 35.18v-3.55h-.15c-.89 1.48-2.04 2.54-3.45 3.2s-2.85.98-4.33.98c-1.87 0-3.41-.24-4.61-.74s-2.14-1.19-2.83-2.09c-.69-.9-1.17-2-1.45-3.3s-.42-2.73-.42-4.31V45.99h6.99v14.38c0 2.1.33 3.67.99 4.7.66 1.04 1.82 1.55 3.5 1.55 1.9 0 3.28-.57 4.14-1.7.85-1.13 1.28-3 1.28-5.59V45.99h7v25.47h-6.66zm18.97-35.18v12.81h.1c.85-1.31 2.01-2.27 3.47-2.88s2.98-.91 4.56-.91c1.28 0 2.55.26 3.79.79 1.25.53 2.37 1.33 3.38 2.42 1 1.08 1.81 2.47 2.44 4.16s.94 3.7.94 6.04-.31 4.34-.94 6.03-1.44 3.08-2.44 4.16-2.13 1.89-3.38 2.41c-1.25.53-2.51.79-3.79.79-1.87 0-3.55-.29-5.02-.89-1.48-.59-2.6-1.59-3.35-3h-.1v3.25h-6.65V36.28h6.99zm11.33 19.36c-.23-.98-.59-1.85-1.09-2.61a5.642 5.642 0 00-1.84-1.8c-.74-.45-1.64-.67-2.69-.67-1.02 0-1.9.22-2.66.67-.75.44-1.38 1.04-1.87 1.8-.49.76-.85 1.63-1.08 2.61-.23.99-.34 2.02-.34 3.1 0 1.05.12 2.07.34 3.05.23.99.59 1.86 1.08 2.61.49.76 1.12 1.35 1.87 1.8.76.44 1.64.66 2.66.66 1.05 0 1.94-.22 2.69-.66.74-.45 1.35-1.04 1.84-1.8s.85-1.63 1.09-2.61c.23-.98.34-2 .34-3.05.01-1.08-.11-2.11-.34-3.1zm17.66 9.49c.31.54.71.99 1.21 1.33.49.34 1.06.6 1.7.76.64.17 1.31.25 2 .25.49 0 1.01-.06 1.55-.17.54-.11 1.03-.29 1.48-.54s.81-.57 1.11-.99c.3-.41.44-.93.44-1.55 0-1.05-.7-1.84-2.09-2.36s-3.34-1.05-5.84-1.58c-1.02-.23-2.01-.5-2.98-.81s-1.83-.72-2.59-1.23a6.065 6.065 0 01-1.82-1.92c-.46-.77-.69-1.72-.69-2.83 0-1.64.32-2.99.96-4.04s1.49-1.88 2.54-2.49c1.05-.61 2.23-1.03 3.55-1.28 1.32-.24 2.66-.37 4.04-.37s2.71.13 4.01.39 2.45.71 3.47 1.33c1.02.63 1.86 1.45 2.54 2.49s1.07 2.34 1.21 3.92h-6.65c-.1-1.35-.61-2.26-1.53-2.73-.92-.48-2-.71-3.25-.71-.39 0-.82.02-1.28.07-.46.05-.88.16-1.25.32-.38.17-.7.4-.96.72-.26.31-.39.73-.39 1.26 0 .62.23 1.13.69 1.53.46.39 1.06.72 1.8.96s1.58.47 2.54.66c.95.2 1.92.41 2.91.64 1.02.23 2.01.51 2.98.84s1.83.76 2.59 1.3c.75.54 1.36 1.21 1.82 2.02.46.8.69 1.8.69 2.98 0 1.68-.34 3.08-1.01 4.21-.67 1.13-1.55 2.04-2.63 2.73s-2.33 1.17-3.72 1.45c-1.4.28-2.81.42-4.26.42-1.48 0-2.92-.15-4.33-.44s-2.67-.79-3.77-1.48-2-1.6-2.71-2.73-1.09-2.55-1.16-4.26h6.65c-.04.74.12 1.39.43 1.93z"/><path d="M265.06 63.87v7.59h-7.73v-7.59h7.73zm5.86-21.82v-5.76h7v5.76h-7zm7 3.94v25.47h-7V45.99h7zm5.66 7.22c.63-1.66 1.51-3.07 2.66-4.24 1.15-1.16 2.53-2.07 4.14-2.71 1.61-.64 3.42-.96 5.42-.96s3.82.32 5.44.96 3.01 1.55 4.16 2.71c1.15 1.17 2.04 2.58 2.66 4.24.62 1.66.93 3.51.93 5.54 0 2.04-.31 3.88-.93 5.52-.63 1.64-1.51 3.05-2.66 4.21-1.15 1.17-2.54 2.06-4.16 2.69-1.63.62-3.44.93-5.44.93s-3.81-.31-5.42-.93c-1.61-.62-2.99-1.52-4.14-2.69-1.15-1.16-2.04-2.57-2.66-4.21s-.93-3.48-.93-5.52c-.01-2.04.31-3.89.93-5.54zm6.36 8.52c.2.97.53 1.84 1.01 2.61s1.11 1.39 1.9 1.85 1.77.69 2.95.69c1.18 0 2.17-.23 2.98-.69s1.45-1.07 1.92-1.85c.48-.77.81-1.64 1.01-2.61s.3-1.96.3-2.98-.1-2.02-.3-3c-.2-.98-.53-1.85-1.01-2.61-.47-.76-1.11-1.37-1.92-1.85-.81-.48-1.8-.71-2.98-.71s-2.17.24-2.95.71c-.79.48-1.42 1.09-1.9 1.85-.47.76-.81 1.63-1.01 2.61a15.113 15.113 0 000 5.98z" fill="#ff0b32"/></svg>